<svg width="31" height="25" viewBox="0 0 31 25" fill="none" xmlns="http://www.w3.org/2000/svg">
<path d="M25.4651 8.47472H23.4918L17.5799 0.985801C17.4057 0.772857 17.1554 0.636137 16.8821 0.604624C16.6087 0.573111 16.3339 0.649282 16.1157 0.816989C16.011 0.897384 15.9234 0.997902 15.858 1.11264C15.7926 1.22738 15.7509 1.35402 15.7351 1.48513C15.7194 1.61624 15.73 1.74917 15.7664 1.87611C15.8028 2.00305 15.8642 2.12144 15.9469 2.22433L20.8451 8.47472H6.09291L11.2167 2.22433C11.3788 2.01874 11.4573 1.7595 11.4363 1.49853C11.4154 1.23756 11.2967 0.994126 11.1039 0.816989V0.816989C10.8858 0.649282 10.6109 0.573111 10.3376 0.604624C10.0642 0.636137 9.81393 0.772857 9.63969 0.985801L3.44703 8.47472H1.58661C1.18023 8.48087 0.791398 8.64138 0.499015 8.9237C0.206632 9.20601 0.0325932 9.58897 0.012207 9.99489L0.012207 11.0086C0.0212938 11.3809 0.162044 11.7379 0.409456 12.0162C0.656867 12.2946 0.994922 12.4762 1.36357 12.5288L4.17913 22.9452C4.29196 23.3957 4.74242 24.7471 5.98095 24.7471H21.0139C21.4582 24.7028 21.8754 24.5134 22.2012 24.2081C22.5269 23.9027 22.7429 23.4986 22.8157 23.0581L25.6313 12.5279C26.0138 12.497 26.3707 12.3237 26.6315 12.0422C26.8923 11.7607 27.0379 11.3915 27.0395 11.0078V9.99489C27.0283 9.58585 26.8571 9.19751 26.5627 8.91328C26.2684 8.62905 25.8743 8.47159 25.4651 8.47472V8.47472ZM10.147 19.6792C10.147 19.9779 10.0284 20.2643 9.81716 20.4755C9.60597 20.6867 9.31953 20.8054 9.02086 20.8054C8.72219 20.8054 8.43576 20.6867 8.22456 20.4755C8.01337 20.2643 7.89473 19.9779 7.89473 19.6792V15.6251C7.89473 15.3265 8.01337 15.04 8.22456 14.8288C8.43576 14.6176 8.72219 14.499 9.02086 14.499C9.31953 14.499 9.60597 14.6176 9.81716 14.8288C10.0284 15.04 10.147 15.3265 10.147 15.6251V19.6792V19.6792ZM14.6515 19.6792C14.6515 19.9779 14.5329 20.2643 14.3217 20.4755C14.1105 20.6867 13.8241 20.8054 13.5254 20.8054C13.2267 20.8054 12.9403 20.6867 12.7291 20.4755C12.5179 20.2643 12.3993 19.9779 12.3993 19.6792V15.6251C12.3993 15.3265 12.5179 15.04 12.7291 14.8288C12.9403 14.6176 13.2267 14.499 13.5254 14.499C13.8241 14.499 14.1105 14.6176 14.3217 14.8288C14.5329 15.04 14.6515 15.3265 14.6515 15.6251V19.6792V19.6792ZM19.1561 19.6792C19.1561 19.9779 19.0374 20.2643 18.8263 20.4755C18.6151 20.6867 18.3286 20.8054 18.03 20.8054C17.7313 20.8054 17.4448 20.6867 17.2337 20.4755C17.0225 20.2643 16.9038 19.9779 16.9038 19.6792V15.6251C16.9038 15.3265 17.0225 15.04 17.2337 14.8288C17.4448 14.6176 17.7313 14.499 18.03 14.499C18.3286 14.499 18.6151 14.6176 18.8263 14.8288C19.0374 15.04 19.1561 15.3265 19.1561 15.6251V19.6792V19.6792Z" fill="#242424"/>
</svg>
