<svg width="27" height="27" viewBox="0 0 27 27" fill="none" xmlns="http://www.w3.org/2000/svg">
<path fill-rule="evenodd" clip-rule="evenodd" d="M13.4842 2.9838C11.8605 2.9838 10.5489 4.32784 10.5489 5.99177H16.4198C16.4198 4.32784 15.1082 2.9838 13.4842 2.9838H13.4842ZM16.4199 8.0078V8.99973C16.4199 9.54373 16.857 9.99166 17.3879 9.99166C17.9188 9.99166 18.3559 9.54375 18.3559 8.99973V8.0078H19.5425C20.0422 8.0078 20.4482 8.39184 20.5105 8.90392L22.0094 21.8957C22.0717 22.5035 21.6346 23.0156 21.0414 23.0156H5.8956C5.3024 23.0156 4.86503 22.5035 4.9276 21.8957L6.42642 8.90392C6.48875 8.39186 6.89496 8.0078 7.39442 8.0078H8.58108V8.99973C8.58108 9.54373 9.01819 9.99166 9.54907 9.99166C10.08 9.99166 10.5171 9.54375 10.5171 8.99973V8.0078H16.4199ZM8.6126 5.99204H7.42594C5.92712 5.99204 4.67782 7.14418 4.52174 8.64816L3.02293 21.6399C2.80424 23.4319 4.1784 25 5.92712 25H21.0729C22.8216 25 24.1957 23.4319 23.9771 21.6399L22.4783 8.64816C22.291 7.14418 21.0418 5.99204 19.5741 5.99204H18.3874C18.3874 3.2401 16.2014 1 13.5158 1C10.7989 1 8.61286 3.23983 8.61286 5.99204H8.6126Z" fill="white"/>
<path d="M21.5 12C24.5376 12 27 9.53757 27 6.5C27 3.46243 24.5376 1 21.5 1C18.4624 1 16 3.46243 16 6.5C16 9.53757 18.4624 12 21.5 12Z" fill="#0A472E"/>
<path d="M23.127 5.2771H21.1505V6.4512C21.2331 6.34107 21.355 6.24863 21.5163 6.1739C21.6815 6.09917 21.8565 6.0618 22.0414 6.0618C22.3718 6.0618 22.6393 6.1326 22.8438 6.2742C23.0523 6.4158 23.1998 6.59477 23.2863 6.8111C23.3768 7.02743 23.422 7.25557 23.422 7.4955C23.422 7.78657 23.365 8.04617 23.2509 8.2743C23.1408 8.4985 22.9736 8.6755 22.7494 8.8053C22.5291 8.9351 22.2577 9 21.9352 9C21.5065 9 21.1623 8.8938 20.9027 8.6814C20.6431 8.469 20.4877 8.18777 20.4366 7.8377H21.0915C21.1348 8.02257 21.2311 8.17007 21.3806 8.2802C21.5301 8.3864 21.7169 8.4395 21.9411 8.4395C22.2204 8.4395 22.4288 8.35493 22.5665 8.1858C22.7081 8.01667 22.7789 7.79247 22.7789 7.5132C22.7789 7.23 22.7081 7.01367 22.5665 6.8642C22.4249 6.7108 22.2164 6.6341 21.9411 6.6341C21.7484 6.6341 21.5851 6.68327 21.4514 6.7816C21.3216 6.876 21.2272 7.0058 21.1682 7.171H20.531V4.6871H23.127V5.2771Z" fill="white"/>
</svg>
