<svg width="51" height="15" viewBox="0 0 51 15" fill="none" xmlns="http://www.w3.org/2000/svg">
<rect x="26.5908" width="23.8636" height="15" rx="2" fill="white"/>
<mask id="mask0_886_1008" style="mask-type:alpha" maskUnits="userSpaceOnUse" x="26" y="0" width="25" height="15">
<rect x="26.5908" width="23.8636" height="15" rx="2" fill="white"/>
</mask>
<g mask="url(#mask0_886_1008)">
<path fill-rule="evenodd" clip-rule="evenodd" d="M50.4545 0H26.5908V1H50.4545V0ZM50.4545 2H26.5908V3H50.4545V2ZM26.5908 4H50.4545V5H26.5908V4ZM50.4545 6H26.5908V7H50.4545V6ZM26.5908 8H50.4545V9H26.5908V8ZM50.4545 10H26.5908V11H50.4545V10ZM26.5908 12H50.4545V13H26.5908V12ZM50.4545 14H26.5908V15H50.4545V14Z" fill="#D02F44"/>
<rect x="26.5908" width="10.2273" height="7" fill="#46467F"/>
<g filter="url(#filter0_d_886_1008)">
<path fill-rule="evenodd" clip-rule="evenodd" d="M28.8637 1.5C28.8637 1.77614 28.6093 2 28.2955 2C27.9817 2 27.7273 1.77614 27.7273 1.5C27.7273 1.22386 27.9817 1 28.2955 1C28.6093 1 28.8637 1.22386 28.8637 1.5ZM31.1364 1.5C31.1364 1.77614 30.882 2 30.5682 2C30.2544 2 30 1.77614 30 1.5C30 1.22386 30.2544 1 30.5682 1C30.882 1 31.1364 1.22386 31.1364 1.5ZM32.8409 2C33.1547 2 33.4091 1.77614 33.4091 1.5C33.4091 1.22386 33.1547 1 32.8409 1C32.5271 1 32.2728 1.22386 32.2728 1.5C32.2728 1.77614 32.5271 2 32.8409 2ZM35.6817 1.5C35.6817 1.77614 35.4273 2 35.1135 2C34.7998 2 34.5454 1.77614 34.5454 1.5C34.5454 1.22386 34.7998 1 35.1135 1C35.4273 1 35.6817 1.22386 35.6817 1.5ZM29.432 3C29.7457 3 30.0001 2.77614 30.0001 2.5C30.0001 2.22386 29.7457 2 29.432 2C29.1182 2 28.8638 2.22386 28.8638 2.5C28.8638 2.77614 29.1182 3 29.432 3ZM32.2727 2.5C32.2727 2.77614 32.0184 3 31.7046 3C31.3908 3 31.1364 2.77614 31.1364 2.5C31.1364 2.22386 31.3908 2 31.7046 2C32.0184 2 32.2727 2.22386 32.2727 2.5ZM33.9773 3C34.2911 3 34.5455 2.77614 34.5455 2.5C34.5455 2.22386 34.2911 2 33.9773 2C33.6635 2 33.4091 2.22386 33.4091 2.5C33.4091 2.77614 33.6635 3 33.9773 3ZM35.6817 3.5C35.6817 3.77614 35.4273 4 35.1135 4C34.7998 4 34.5454 3.77614 34.5454 3.5C34.5454 3.22386 34.7998 3 35.1135 3C35.4273 3 35.6817 3.22386 35.6817 3.5ZM32.8409 4C33.1547 4 33.4091 3.77614 33.4091 3.5C33.4091 3.22386 33.1547 3 32.8409 3C32.5271 3 32.2728 3.22386 32.2728 3.5C32.2728 3.77614 32.5271 4 32.8409 4ZM31.1364 3.5C31.1364 3.77614 30.882 4 30.5682 4C30.2544 4 30 3.77614 30 3.5C30 3.22386 30.2544 3 30.5682 3C30.882 3 31.1364 3.22386 31.1364 3.5ZM28.2955 4C28.6093 4 28.8637 3.77614 28.8637 3.5C28.8637 3.22386 28.6093 3 28.2955 3C27.9817 3 27.7273 3.22386 27.7273 3.5C27.7273 3.77614 27.9817 4 28.2955 4ZM30.0001 4.5C30.0001 4.77614 29.7457 5 29.432 5C29.1182 5 28.8638 4.77614 28.8638 4.5C28.8638 4.22386 29.1182 4 29.432 4C29.7457 4 30.0001 4.22386 30.0001 4.5ZM31.7046 5C32.0184 5 32.2727 4.77614 32.2727 4.5C32.2727 4.22386 32.0184 4 31.7046 4C31.3908 4 31.1364 4.22386 31.1364 4.5C31.1364 4.77614 31.3908 5 31.7046 5ZM34.5455 4.5C34.5455 4.77614 34.2911 5 33.9773 5C33.6635 5 33.4091 4.77614 33.4091 4.5C33.4091 4.22386 33.6635 4 33.9773 4C34.2911 4 34.5455 4.22386 34.5455 4.5ZM35.1135 6C35.4273 6 35.6817 5.77614 35.6817 5.5C35.6817 5.22386 35.4273 5 35.1135 5C34.7998 5 34.5454 5.22386 34.5454 5.5C34.5454 5.77614 34.7998 6 35.1135 6ZM33.4091 5.5C33.4091 5.77614 33.1547 6 32.8409 6C32.5271 6 32.2728 5.77614 32.2728 5.5C32.2728 5.22386 32.5271 5 32.8409 5C33.1547 5 33.4091 5.22386 33.4091 5.5ZM30.5682 6C30.882 6 31.1364 5.77614 31.1364 5.5C31.1364 5.22386 30.882 5 30.5682 5C30.2544 5 30 5.22386 30 5.5C30 5.77614 30.2544 6 30.5682 6ZM28.8637 5.5C28.8637 5.77614 28.6093 6 28.2955 6C27.9817 6 27.7273 5.77614 27.7273 5.5C27.7273 5.22386 27.9817 5 28.2955 5C28.6093 5 28.8637 5.22386 28.8637 5.5Z" fill="url(#paint0_linear_886_1008)"/>
</g>
</g>
<rect width="23.8636" height="15" rx="2" fill="white"/>
<mask id="mask1_886_1008" style="mask-type:alpha" maskUnits="userSpaceOnUse" x="0" y="0" width="24" height="15">
<rect width="23.8636" height="15" rx="2" fill="white"/>
</mask>
<g mask="url(#mask1_886_1008)">
<path fill-rule="evenodd" clip-rule="evenodd" d="M0 4H23.8636V0H0V4Z" fill="#DD172C"/>
<path fill-rule="evenodd" clip-rule="evenodd" d="M0 15H23.8636V11H0V15Z" fill="#DD172C"/>
<path fill-rule="evenodd" clip-rule="evenodd" d="M0 11H23.8636V4H0V11Z" fill="#FFD133"/>
<path fill-rule="evenodd" clip-rule="evenodd" d="M6.25 7H7.38636V7.5H6.25V7Z" fill="#FFEDB1"/>
<path d="M5.23052 7.19809C5.212 7.00246 5.36586 6.83333 5.56237 6.83333H6.93772C7.13423 6.83333 7.28809 7.00246 7.26957 7.19809L7.16169 8.33727C7.11716 8.80747 6.72234 9.16667 6.25004 9.16667C5.77775 9.16667 5.38292 8.80747 5.3384 8.33727L5.23052 7.19809Z" stroke="#A41517" stroke-width="0.666667"/>
<path fill-rule="evenodd" clip-rule="evenodd" d="M5.11353 7.5H7.38625V8H6.81807L6.24989 9L5.68171 8H5.11353V7.5Z" fill="#A41517"/>
<rect x="3.40918" y="6" width="1.13636" height="3.5" rx="0.568182" fill="#A41517"/>
<rect x="7.95459" y="6" width="1.13636" height="3.5" rx="0.568181" fill="#A41517"/>
<path d="M5.11353 5.8C5.11353 5.35817 5.4717 5 5.91353 5H6.58625C7.02808 5 7.38625 5.35817 7.38625 5.8C7.38625 5.91046 7.29671 6 7.18625 6H5.31353C5.20307 6 5.11353 5.91046 5.11353 5.8Z" fill="#A41517"/>
</g>
<defs>
<filter id="filter0_d_886_1008" x="27.7273" y="1" width="7.95435" height="6" filterUnits="userSpaceOnUse" color-interpolation-filters="sRGB">
<feFlood flood-opacity="0" result="BackgroundImageFix"/>
<feColorMatrix in="SourceAlpha" type="matrix" values="0 0 0 0 0 0 0 0 0 0 0 0 0 0 0 0 0 0 127 0" result="hardAlpha"/>
<feOffset dy="1"/>
<feColorMatrix type="matrix" values="0 0 0 0 0 0 0 0 0 0 0 0 0 0 0 0 0 0 0.06 0"/>
<feBlend mode="normal" in2="BackgroundImageFix" result="effect1_dropShadow_886_1008"/>
<feBlend mode="normal" in="SourceGraphic" in2="effect1_dropShadow_886_1008" result="shape"/>
</filter>
<linearGradient id="paint0_linear_886_1008" x1="27.7273" y1="1" x2="27.7273" y2="6" gradientUnits="userSpaceOnUse">
<stop stop-color="white"/>
<stop offset="1" stop-color="#F0F0F0"/>
</linearGradient>
</defs>
</svg>
