<svg width="44" height="45" viewBox="0 0 44 45" fill="none" xmlns="http://www.w3.org/2000/svg">
<circle cx="21.9428" cy="22.5969" r="20.8976" stroke="white" stroke-width="1.5"/>
<g clip-path="url(#clip0_976_845)">
<path d="M26.0298 25.6328L26.4954 22.5977H23.5833V20.6289C23.5833 19.7985 23.9901 18.9883 25.2944 18.9883H26.6184V16.4043C26.6184 16.4043 25.4169 16.1992 24.268 16.1992C21.8696 16.1992 20.302 17.6528 20.302 20.2844V22.5977H17.636V25.6328H20.302V32.9701C21.3891 33.1402 22.4961 33.1402 23.5833 32.9701V25.6328H26.0298Z" fill="#1F7545"/>
</g>
<path d="M21.794 11.9492C15.9968 11.9492 11.2952 16.3017 11.2952 21.6721C11.309 23.1523 11.6703 24.6086 12.3499 25.9237C13.0295 27.2388 14.0085 28.3759 15.2079 29.2434V32.9515L18.7836 30.9894C19.7649 31.2603 20.7783 31.3972 21.7963 31.3965C27.5958 31.3965 32.2952 27.044 32.2952 21.6736C32.2952 16.3032 27.5958 11.9492 21.794 11.9492ZM22.8378 25.0431L20.1659 22.1909L14.9469 25.0431L20.6886 18.9485L23.4274 21.8006L28.5802 18.9485L22.8378 25.0431Z" fill="white"/>
<defs>
<clipPath id="clip0_976_845">
<rect width="21" height="21" fill="white" transform="translate(11.4426 12.0977)"/>
</clipPath>
</defs>
</svg>
