<svg width="27" height="27" viewBox="0 0 27 27" fill="none" xmlns="http://www.w3.org/2000/svg">
<path d="M13.541 16.1905L13.541 16.191C15.3229 16.268 17.0646 15.6482 18.3972 14.4629C18.4989 14.3592 18.628 14.2863 18.7694 14.2527C18.9117 14.2189 19.0606 14.2263 19.1988 14.2739C20.8333 14.7665 22.2836 15.736 23.3638 17.058C24.444 18.3802 25.1048 19.9947 25.2616 21.6947C25.3035 22.0132 25.278 22.3369 25.1867 22.6449C25.0951 22.9539 24.9393 23.2401 24.7296 23.4848L24.7288 23.4858C24.5099 23.7369 24.2396 23.9381 23.9361 24.0755C23.6326 24.213 23.3031 24.2836 22.97 24.2824M13.541 16.1905L4.16072 24.1324M13.541 16.1905L13.5281 16.191C11.7462 16.268 10.0045 15.6482 8.67191 14.463C8.57016 14.3592 8.44114 14.2863 8.2997 14.2527C8.15727 14.2189 8.00818 14.2263 7.86985 14.2741C6.24543 14.7748 4.80703 15.7482 3.73828 17.0701C2.66965 18.3918 2.01907 20.0019 1.86952 21.6949C1.8277 22.0133 1.85325 22.337 1.94453 22.6449C2.03613 22.9539 2.19186 23.2401 2.40156 23.4848L2.40238 23.4858C2.62127 23.7369 2.89162 23.9381 3.1951 24.0755C3.49857 24.213 3.82807 24.2836 4.16122 24.2824M13.541 16.1905L4.16072 24.1324M22.97 24.2824L22.9705 24.1324V24.2824H22.97ZM22.97 24.2824H4.16122M4.16122 24.2824L4.16072 24.1324M4.16122 24.2824H4.16072V24.1324M22.9399 22.8913C23.0742 22.8941 23.2075 22.8678 23.3307 22.8142C23.4539 22.7606 23.5641 22.6809 23.6536 22.5808L22.9399 22.8913ZM22.9399 22.8913H4.15985M22.9399 22.8913H4.15985M4.15985 22.8913C4.02552 22.8941 3.89219 22.8678 3.769 22.8142C3.6458 22.7606 3.53565 22.6809 3.44612 22.5808M4.15985 22.8913L3.44612 22.5808M3.44612 22.5808C3.35926 22.4854 3.29474 22.3718 3.25722 22.2484C3.2197 22.1249 3.21013 21.9947 3.2292 21.8671L3.44612 22.5808ZM23.6152 22.4308H23.5865L23.5418 22.4808C23.4667 22.5648 23.3742 22.6316 23.2709 22.6766C23.1675 22.7216 23.0557 22.7437 22.943 22.7413V22.7413H22.9399H4.15985V22.7413L4.15675 22.7413C4.04406 22.7437 3.93219 22.7216 3.82884 22.6766C3.72548 22.6316 3.63307 22.5649 3.55795 22.4808L3.55704 22.4798C3.48518 22.4009 3.43178 22.3069 3.40074 22.2047C3.36969 22.1026 3.36177 21.9948 3.37755 21.8892L3.37777 21.8893L3.37854 21.8811C3.50531 20.5364 4.0131 19.2558 4.84228 18.1897C5.65449 17.1453 6.74203 16.3492 7.98175 15.8904C9.57038 17.1371 11.5459 17.7895 13.5662 17.733C15.5856 17.7843 17.5592 17.1324 19.15 15.8903C20.3939 16.3517 21.4842 17.1525 22.2968 18.2025C23.1263 19.2744 23.6318 20.5613 23.7535 21.9111L23.7534 21.9111L23.7539 21.9152C23.7659 22.0168 23.7561 22.1197 23.7251 22.2172C23.7007 22.2942 23.6635 22.3664 23.6152 22.4308Z" fill="white" stroke="white" stroke-width="0.3"/>
<path d="M13.4159 3.39466V3.42264H13.5659C15.6951 3.42264 17.4823 5.50341 17.4823 8.08332C17.4823 10.6632 15.6951 12.744 13.5659 12.744C11.4367 12.744 9.6496 10.6632 9.6496 8.08332C9.6496 5.56295 11.3545 3.491 13.4159 3.39466ZM13.5659 14.2869C16.5847 14.2869 19.0243 11.469 19.0243 8.0842C19.0243 4.70042 16.5811 1.85 13.5659 1.85C10.5517 1.85 8.10757 4.66786 8.10757 8.05271C8.10757 11.4364 10.5463 14.2869 13.5659 14.2869Z" fill="white" stroke="white" stroke-width="0.3"/>
</svg>
