<svg width="28" height="37" viewBox="0 0 28 37" fill="none" xmlns="http://www.w3.org/2000/svg">
<path d="M10.7737 0.839172C8.39701 1.43222 6.22967 2.64167 4.50214 4.33893C2.77462 6.03618 1.55148 8.15781 0.962781 10.4782C0.374078 12.7986 0.441815 15.2311 1.15879 17.517C1.87576 19.8029 3.21517 21.8568 5.03462 23.4603L0.730447 30.8516C0.662902 30.9678 0.631104 31.1005 0.638847 31.2339C0.646589 31.3672 0.693544 31.4956 0.77411 31.6037C0.854676 31.7117 0.965451 31.7949 1.09322 31.8433C1.22099 31.8917 1.36035 31.9033 1.49469 31.8767L6.38265 30.8878L8.10087 35.6059C8.14669 35.7316 8.22858 35.8418 8.33681 35.9234C8.44504 36.005 8.57506 36.0546 8.71139 36.0663C8.84773 36.078 8.98465 36.0513 9.10586 35.9894C9.22708 35.9275 9.3275 35.833 9.39517 35.7171L14.1385 27.5929L18.8819 35.7171C18.9443 35.8239 19.0346 35.9127 19.1437 35.9744C19.2528 36.0362 19.3767 36.0687 19.5028 36.0687C19.524 36.0687 19.5453 36.0687 19.5691 36.0687C19.7055 36.0569 19.8354 36.0071 19.9436 35.9254C20.0518 35.8438 20.1337 35.7335 20.1795 35.6079L21.897 30.8898L26.785 31.8786C26.9195 31.9059 27.0593 31.8948 27.1875 31.8466C27.3157 31.7985 27.4269 31.7153 27.5079 31.6071C27.5888 31.4989 27.636 31.3703 27.6438 31.2367C27.6516 31.103 27.6197 30.97 27.5519 30.8536L23.2471 23.461C25.0665 21.8575 26.4059 19.8037 27.1229 17.5178C27.84 15.2319 27.9078 12.7995 27.3191 10.4791C26.7305 8.15868 25.5074 6.03705 23.78 4.33975C22.0525 2.64246 19.8853 1.43295 17.5086 0.839819C17.4161 0.811883 17.3188 0.802552 17.2225 0.812391C17.1262 0.82223 17.033 0.851035 16.9484 0.897055C16.8639 0.943076 16.7899 1.00535 16.7308 1.0801C16.6718 1.15485 16.6289 1.24052 16.6049 1.3319C16.5809 1.42328 16.5761 1.51846 16.591 1.61167C16.6059 1.70488 16.6401 1.79417 16.6915 1.87411C16.7428 1.95406 16.8104 2.023 16.8899 2.07674C16.9695 2.13049 17.0595 2.16791 17.1544 2.18675C20.02 2.90189 22.5192 4.61135 24.183 6.99429C25.8468 9.37724 26.5607 12.2698 26.1908 15.1292C25.8208 17.9885 24.3925 20.6181 22.1738 22.5243C19.9551 24.4305 17.0987 25.4823 14.1405 25.4823C11.1823 25.4823 8.32586 24.4305 6.10718 22.5243C3.88851 20.6181 2.46017 17.9885 2.09024 15.1292C1.72031 12.2698 2.43423 9.37724 4.098 6.99429C5.76177 4.61135 8.26101 2.90189 11.1267 2.18675C11.2179 2.16439 11.3036 2.12471 11.379 2.06999C11.4545 2.01527 11.5181 1.94658 11.5662 1.86787C11.6143 1.78915 11.646 1.70195 11.6594 1.61128C11.6729 1.5206 11.6678 1.42823 11.6446 1.33946C11.6213 1.25069 11.5803 1.16727 11.5238 1.09398C11.4674 1.02069 11.3967 0.958981 11.3157 0.912382C11.2347 0.865783 11.1451 0.835215 11.052 0.82243C10.9589 0.809645 10.8641 0.814895 10.7731 0.83788L10.7737 0.839172ZM8.92482 33.7045L7.52371 29.8492C7.46604 29.6905 7.35134 29.5576 7.20083 29.4751C7.05032 29.3925 6.8742 29.3658 6.70507 29.4L2.75516 30.2008L6.16174 24.3516C8.15178 25.7592 10.4962 26.6149 12.9457 26.8276L8.92482 33.7045ZM21.5733 29.4006C21.4042 29.3665 21.228 29.3931 21.0775 29.4757C20.927 29.5583 20.8123 29.6912 20.7546 29.8498L19.3509 33.7045L15.3386 26.8276C17.7881 26.6148 20.1325 25.7591 22.1226 24.3516L25.5292 30.2008L21.5733 29.4006Z" fill="#36A62F"/>
</svg>
