<svg width="25" height="24" viewBox="0 0 25 24" fill="none" xmlns="http://www.w3.org/2000/svg">
<path d="M12.506 2.12716C14.5109 2.12716 16.4707 2.72166 18.1376 3.83548C19.8045 4.9493 21.1038 6.53241 21.871 8.38462C22.6382 10.2368 22.8389 12.2749 22.4478 14.2412C22.0567 16.2075 21.0913 18.0137 19.6737 19.4313C18.256 20.8489 16.4499 21.8144 14.4836 22.2055C12.5173 22.5966 10.4792 22.3959 8.62695 21.6286C6.77474 20.8614 5.19163 19.5622 4.07781 17.8953C2.964 16.2283 2.3695 14.2685 2.3695 12.2637C2.37205 9.57611 3.44082 6.99932 5.34124 5.0989C7.24165 3.19848 9.81844 2.12971 12.506 2.12716ZM12.506 1.00146C10.2784 1.00146 8.1008 1.66203 6.24859 2.89964C4.39638 4.13725 2.95276 5.89631 2.10028 7.95437C1.2478 10.0124 1.02475 12.2771 1.45934 14.4619C1.89393 16.6467 2.96664 18.6536 4.54182 20.2288C6.11699 21.804 8.12388 22.8767 10.3087 23.3113C12.4935 23.7459 14.7582 23.5228 16.8162 22.6703C18.8743 21.8179 20.6334 20.3742 21.871 18.522C23.1086 16.6698 23.7692 14.4922 23.7692 12.2646C23.7692 9.27742 22.5825 6.4126 20.4703 4.30035C18.358 2.18811 15.4932 1.00146 12.506 1.00146Z" fill="white" stroke="white" stroke-width="0.6"/>
<path d="M12.1176 8.74934C12.6007 8.74934 12.9923 8.35774 12.9923 7.87467C12.9923 7.3916 12.6007 7 12.1176 7C11.6345 7 11.2429 7.3916 11.2429 7.87467C11.2429 8.35774 11.6345 8.74934 12.1176 8.74934Z" fill="white" stroke="white" stroke-width="0.6"/>
<path d="M12.784 10.6714H11.4519V17.7466H12.784V10.6714Z" fill="white" stroke="white" stroke-width="0.6"/>
</svg>
