<svg width="27" height="27" viewBox="0 0 27 27" fill="none" xmlns="http://www.w3.org/2000/svg">
<path d="M14.2631 3.1257C16.2679 3.1257 18.2277 3.7202 19.8947 4.83401C21.5616 5.94783 22.8609 7.53094 23.6281 9.38315C24.3953 11.2354 24.596 13.2735 24.2049 15.2398C23.8138 17.2061 22.8484 19.0122 21.4307 20.4299C20.0131 21.8475 18.207 22.8129 16.2407 23.204C14.2744 23.5951 12.2362 23.3944 10.384 22.6272C8.53182 21.86 6.94871 20.5607 5.83489 18.8938C4.72108 17.2269 4.12658 15.2671 4.12658 13.2622C4.12913 10.5746 5.1979 7.99785 7.09832 6.09744C8.99873 4.19702 11.5755 3.12825 14.2631 3.1257V3.1257ZM14.2631 2C12.0355 2 9.85788 2.66057 8.00567 3.89818C6.15346 5.13578 4.70984 6.89484 3.85736 8.95291C3.00488 11.011 2.78183 13.2756 3.21642 15.4604C3.65101 17.6453 4.72372 19.6522 6.2989 21.2273C7.87407 22.8025 9.88096 23.8752 12.0658 24.3098C14.2506 24.7444 16.5153 24.5214 18.5733 23.6689C20.6314 22.8164 22.3905 21.3728 23.6281 19.5206C24.8657 17.6684 25.5262 15.4907 25.5262 13.2631C25.5262 10.276 24.3396 7.41113 22.2273 5.29889C20.1151 3.18665 17.2503 2 14.2631 2V2Z" fill="white" stroke="white" stroke-width="0.6"/>
<path d="M13.8747 9.74787C14.3577 9.74787 14.7493 9.35627 14.7493 8.8732C14.7493 8.39014 14.3577 7.99854 13.8747 7.99854C13.3916 7.99854 13 8.39014 13 8.8732C13 9.35627 13.3916 9.74787 13.8747 9.74787Z" fill="white" stroke="white" stroke-width="0.6"/>
<path d="M14.5411 18.0791V12.336C14.5411 11.9681 14.2429 11.6699 13.875 11.6699C13.5072 11.6699 13.209 11.9681 13.209 12.336V18.0791C13.209 18.4469 13.5072 18.7451 13.875 18.7451C14.2429 18.7451 14.5411 18.4469 14.5411 18.0791Z" fill="white" stroke="white" stroke-width="0.6"/>
</svg>
