<svg width="44" height="45" viewBox="0 0 44 45" fill="none" xmlns="http://www.w3.org/2000/svg">
<circle cx="21.9428" cy="22.5969" r="20.8976" stroke="white" stroke-width="1.5"/>
<g clip-path="url(#clip0_975_1192)">
<path d="M26.0298 25.6328L26.4954 22.5977H23.5833V20.6289C23.5833 19.7985 23.9901 18.9883 25.2944 18.9883H26.6184V16.4043C26.6184 16.4043 25.4169 16.1992 24.268 16.1992C21.8696 16.1992 20.302 17.6528 20.302 20.2844V22.5977H17.636V25.6328H20.302V32.9701C21.3891 33.1402 22.4961 33.1402 23.5833 32.9701V25.6328H26.0298Z" fill="#1F7545"/>
</g>
<g clip-path="url(#clip1_975_1192)">
<path d="M31.0642 18.2368C30.9567 17.8539 30.745 17.5044 30.4502 17.2233C30.1554 16.9423 29.7879 16.7395 29.3844 16.6352C27.8989 16.2568 21.9614 16.2568 21.9614 16.2568C21.9614 16.2568 16.0239 16.2568 14.5385 16.6352C14.135 16.7395 13.7674 16.9423 13.4726 17.2233C13.1778 17.5044 12.9661 17.8539 12.8587 18.2368C12.4614 19.6502 12.4614 22.5977 12.4614 22.5977C12.4614 22.5977 12.4614 25.5452 12.8587 26.9587C12.9661 27.3416 13.1778 27.6911 13.4726 27.9722C13.7674 28.2532 14.135 28.456 14.5385 28.5602C16.0239 28.9387 21.9614 28.9387 21.9614 28.9387C21.9614 28.9387 27.8989 28.9387 29.3844 28.5602C29.7879 28.456 30.1554 28.2532 30.4502 27.9722C30.745 27.6911 30.9567 27.3416 31.0642 26.9587C31.4614 25.5452 31.4614 22.5977 31.4614 22.5977C31.4614 22.5977 31.4614 19.6502 31.0642 18.2368Z" fill="white"/>
<path d="M20.0183 25.2739V19.9209L24.9842 22.5974L20.0183 25.2739Z" fill="#1F7545"/>
</g>
<defs>
<clipPath id="clip0_975_1192">
<rect width="21" height="21" fill="white" transform="translate(11.4426 12.0977)"/>
</clipPath>
<clipPath id="clip1_975_1192">
<rect width="19" height="18" fill="white" transform="translate(12.4426 13.5977)"/>
</clipPath>
</defs>
</svg>
